<?xml version="1.0" encoding="iso-8859-1"?>
<!-- Generator: Adobe Illustrator 20.1.0, SVG Export Plug-In . SVG Version: 6.00 Build 0)  -->
<svg xmlns="http://www.w3.org/2000/svg" xmlns:xlink="http://www.w3.org/1999/xlink" version="1.1" id="&#1057;&#1083;&#1086;&#1081;_1" x="0px" y="0px" viewBox="0 0 64 64" style="enable-background:new 0 0 64 64;" xml:space="preserve" width="64px" height="64px">
<linearGradient id="SVGID_1__49467" gradientUnits="userSpaceOnUse" x1="38.9998" y1="23.4166" x2="38.9998" y2="30.2517" spreadMethod="reflect">
	<stop offset="0" style="stop-color:#6DC7FF"/>
	<stop offset="1" style="stop-color:#E6ABFF"/>
</linearGradient>
<circle style="fill:url(#SVGID_1__49467);" cx="39" cy="27" r="3"/>
<linearGradient id="SVGID_2__49467" gradientUnits="userSpaceOnUse" x1="25.0002" y1="23.4166" x2="25.0002" y2="30.2517" spreadMethod="reflect">
	<stop offset="0" style="stop-color:#6DC7FF"/>
	<stop offset="1" style="stop-color:#E6ABFF"/>
</linearGradient>
<circle style="fill:url(#SVGID_2__49467);" cx="25" cy="27" r="3"/>
<linearGradient id="SVGID_3__49467" gradientUnits="userSpaceOnUse" x1="32" y1="13.5833" x2="32" y2="16.9177" spreadMethod="reflect">
	<stop offset="0" style="stop-color:#6DC7FF"/>
	<stop offset="1" style="stop-color:#E6ABFF"/>
</linearGradient>
<rect x="18" y="14" style="fill:url(#SVGID_3__49467);" width="28" height="2"/>
<linearGradient id="SVGID_4__49467" gradientUnits="userSpaceOnUse" x1="32" y1="5.5" x2="32" y2="59.2161" spreadMethod="reflect">
	<stop offset="0" style="stop-color:#1A6DFF"/>
	<stop offset="1" style="stop-color:#C822FF"/>
</linearGradient>
<path style="fill:url(#SVGID_4__49467);" d="M53.999,31H53v-4.044c0-0.968-0.483-1.875-1.29-2.426c-0.826-0.565-1.879-0.684-2.814-0.318  L48,24.562V22h2.999c1.654,0,3-1.346,3-3s-1.346-3-3-3H48V9c0-1.654-1.346-3-3-3H19c-1.654,0-3,1.346-3,3v7h-2.999  c-1.654,0-3,1.346-3,3s1.346,3,3,3H16v2.562l-0.9-0.352c-0.933-0.366-1.984-0.247-2.81,0.316c-0.808,0.552-1.29,1.46-1.29,2.429V31  h-0.999C8.347,31,7,32.345,7,34v8C7,43.654,8.347,45,10.001,45H11v3.16c0,1.218,0.743,2.295,1.892,2.744l17.256,6.747  C30.746,57.883,31.373,58,32,58c0.627,0,1.255-0.117,1.852-0.35l17.257-6.746C52.257,50.455,53,49.378,53,48.16V45h0.999  C55.653,45,57,43.654,57,41.999v-8C57,32.345,55.653,31,53.999,31z M19,8H45c0.552,0,1,0.449,1,1v3H18V9C18,8.449,18.449,8,19,8z   M18,14h28v2H18V14z M12.001,19c0-0.551,0.448-1,1-1h37.999c0.552,0,1,0.449,1,1s-0.448,1-1,1H13.001  C12.449,20,12.001,19.551,12.001,19z M18,22h28v3.344l-12.877,5.034c-0.724,0.282-1.519,0.284-2.24,0.002L18,25.344V22z M9,41.999  v-8c0-0.551,0.449-1,1.001-1h2c2.757,0,5,2.243,5,5s-2.243,5-5,5h-2C9.449,43,9,42.551,9,41.999z M13,48.16v-3.24  c3-0.488,6-3.401,6-6.92c0-3.519-3-6.432-6-6.92v-4.124c0-0.312,0.153-0.596,0.418-0.777c0.284-0.193,0.632-0.232,0.953-0.105  L27,31.01v23.262l-13.38-5.231C13.243,48.894,13,48.548,13,48.16z M33.123,55.787c-0.725,0.283-1.522,0.283-2.246,0L29,55.054  V31.792l1.154,0.451C30.43,32.35,30,32.427,31,32.485V46h2V32.485c0.288-0.058,0.574-0.136,0.852-0.245L35,31.791v23.263  L33.123,55.787z M50.38,49.042L37,54.272V31.009l12.624-4.935c0.324-0.127,0.674-0.087,0.959,0.107  C50.847,26.362,51,26.645,51,26.956v4.124c-4,0.488-6,3.401-6,6.92c0,3.519,2,6.432,6,6.92v3.24  C51,48.548,50.757,48.894,50.38,49.042z M55,41.999C55,42.551,54.551,43,53.999,43h-2c-2.757,0-5-2.243-5-5s2.243-5,5-5h2  C54.551,33,55,33.448,55,34V41.999z"/>
</svg>
