<?xml version="1.0" encoding="iso-8859-1"?>
<!-- Generator: Adobe Illustrator 21.1.0, SVG Export Plug-In . SVG Version: 6.00 Build 0)  -->
<svg xmlns="http://www.w3.org/2000/svg" xmlns:xlink="http://www.w3.org/1999/xlink" version="1.1" id="Layer_1" x="0px" y="0px" viewBox="0 0 64 64" style="enable-background:new 0 0 64 64;" xml:space="preserve" width="64px" height="64px">
<linearGradient id="SVGID_1__68807" gradientUnits="userSpaceOnUse" x1="32.5" y1="11" x2="32.5" y2="53" spreadMethod="reflect">
	<stop offset="0" style="stop-color:#1A6DFF"/>
	<stop offset="1" style="stop-color:#C822FF"/>
</linearGradient>
<path style="fill:url(#SVGID_1__68807);" d="M60.44,32.43l-8.12-6.09C51,25.46,49.47,25,47.88,25H34.49l-3.92-5H33c0.55,0,1-0.45,1-1  s-0.45-1-1-1h-4l-3.92-5H28c0.55,0,1-0.45,1-1s-0.45-1-1-1H18c-0.55,0-1,0.45-1,1v13h-3.26l-1.71-5.72C11.18,16.44,9.15,15,6,15  c-1.6,0-3,1.4-3,3v12c0,4.96,4.04,9,9,9h5v13c0,0.55,0.45,1,1,1h10c0.55,0,1-0.45,1-1s-0.45-1-1-1h-2.93l3.9-5.01  c0.01,0,0.02,0.01,0.03,0.01h4c0.55,0,1-0.45,1-1s-0.45-1-1-1h-2.48l4-5.14C34.67,38.94,34.82,39,35,39h23.39  c1.99,0,3.61-1.62,3.61-3.61C62,34.19,61.4,33.07,60.44,32.43z M42,27h5.88c1.13,0,2.22,0.32,3.14,0.9c0,0.03-0.02,0.06-0.02,0.1  c0,0.55-0.45,1-1,1h-8c-0.55,0-1-0.45-1-1S41.45,27,42,27z M19,13h3.04c0.31,0,0.6,0.14,0.79,0.38L31.94,25H19V13z M22.83,50.62  C22.64,50.86,22.35,51,22.04,51H19V35l15.99,0.01L22.83,50.62z M58.39,37H35.98l0.59-0.76c0.48-0.61,0.57-1.41,0.23-2.11  c-0.34-0.7-1.03-1.13-1.81-1.13H18c-0.55,0-1,0.45-1,1v3h-5c-3.86,0-7-3.14-7-7V18c0-0.55,0.55-1,1-1c2.25,0,3.52,0.88,4.11,2.85  l1.93,6.44C12.17,26.71,12.56,27,13,27h26.18C39.07,27.31,39,27.65,39,28c0,1.65,1.35,3,3,3h8c1.24,0,2.3-0.75,2.76-1.83l6.52,4.89  c0.45,0.3,0.72,0.8,0.72,1.33C60,36.28,59.28,37,58.39,37z"/>
<linearGradient id="SVGID_2__68807" gradientUnits="userSpaceOnUse" x1="24.415" y1="15" x2="24.415" y2="23" spreadMethod="reflect">
	<stop offset="0" style="stop-color:#6DC7FF"/>
	<stop offset="1" style="stop-color:#E6ABFF"/>
</linearGradient>
<polygon style="fill:url(#SVGID_2__68807);" points="27.83,23 21,23 21,15 21.56,15 "/>
<linearGradient id="SVGID_3__68807" gradientUnits="userSpaceOnUse" x1="46.01" y1="27" x2="46.01" y2="29" spreadMethod="reflect">
	<stop offset="0" style="stop-color:#6DC7FF"/>
	<stop offset="1" style="stop-color:#E6ABFF"/>
</linearGradient>
<path style="fill:url(#SVGID_3__68807);" d="M51.02,27.9c0,0.03-0.02,0.06-0.02,0.1c0,0.55-0.45,1-1,1h-8c-0.55,0-1-0.45-1-1s0.45-1,1-1  h5.88C49.01,27,50.1,27.32,51.02,27.9z"/>
</svg>
