<?xml version="1.0" encoding="iso-8859-1"?>
<!-- Generator: Adobe Illustrator 20.1.0, SVG Export Plug-In . SVG Version: 6.00 Build 0)  -->
<svg xmlns="http://www.w3.org/2000/svg" xmlns:xlink="http://www.w3.org/1999/xlink" version="1.1" id="&#1057;&#1083;&#1086;&#1081;_1" x="0px" y="0px" viewBox="0 0 64 64" style="enable-background:new 0 0 64 64;" xml:space="preserve" width="64px" height="64px">
<linearGradient id="SVGID_1__48188" gradientUnits="userSpaceOnUse" x1="29.0128" y1="9" x2="29.0128" y2="19.25" spreadMethod="reflect">
	<stop offset="0" style="stop-color:#6DC7FF"/>
	<stop offset="1" style="stop-color:#E6ABFF"/>
</linearGradient>
<path style="fill:url(#SVGID_1__48188);" d="M35.016,16c0,1.78-0.79,3.39-2.03,4.48c0.02-0.16,0.037-0.32,0.037-0.48  c0-0.17-0.023-0.33-0.023-0.49c0-0.01,0-0.01,0-0.02c0-1.97-1.96-3.49-4-3.49c-2.04,0-4,1.52-4,3.49c0,0.01,0,0.01,0,0.02  c0,0.16-0.007,0.32-0.007,0.49c0,0.16,0.021,0.32,0.041,0.48c-1.24-1.09-2.024-2.7-2.024-4.48c0-3.31,2.693-6,6.003-6  S35.016,12.69,35.016,16z"/>
<linearGradient id="SVGID_2__48188" gradientUnits="userSpaceOnUse" x1="31.9982" y1="3.75" x2="31.9982" y2="60.005" spreadMethod="reflect">
	<stop offset="0" style="stop-color:#1A6DFF"/>
	<stop offset="1" style="stop-color:#C822FF"/>
</linearGradient>
<path style="fill:url(#SVGID_2__48188);" d="M48.215,34.005c-0.892-0.051-1.749,0.195-2.468,0.689c-0.544-1.509-1.9-2.604-3.527-2.689  c-1.111-0.059-2.161,0.33-2.964,1.092c-0.093,0.088-0.165,0.194-0.248,0.29C38.274,32.544,37.206,32,36.005,32  C35.272,32,35,32.213,34,32.559v-7.914c3-1.787,5.014-5.046,5.014-8.645c0-5.514-4.485-10-9.999-10s-10.001,4.486-10.001,10  c0,3.588,1.986,6.839,4.986,8.629v15.872l-3.347-3.147c-0.997-0.936-2.345-1.432-3.711-1.336c-1.365,0.087-2.647,0.74-3.518,1.795  l-0.258,0.313c-1.583,1.917-1.557,4.677,0.064,6.562l9.91,11.532C24.113,57.351,25.521,58,27.009,58h19.006  C49.317,58,52,55.308,52,51.999V38.17C52,35.945,50.339,34.116,48.215,34.005z M21.014,16c0-4.411,3.59-8,8.001-8  s7.999,3.589,7.999,8c0,2.468-1.014,4.734-3.014,6.234V20c0-2.755-2.233-4.996-4.984-5c-0.002-0.001-0.004-0.001-0.006,0h-0.006  C26.25,15.004,24,17.245,24,19.999v2.215C22,20.713,21.014,18.457,21.014,16z M50,51.999C50,54.205,48.214,56,46.015,56H27.003  c-0.899,0-1.754-0.396-2.346-1.084l-9.91-11.532c-0.984-1.146-1-2.821-0.038-3.985l0.258-0.313c0.528-0.639,1.275-1.02,2.103-1.072  c0.829-0.05,1.617,0.23,2.223,0.799l3.354,3.147c0.591,0.554,1.419,0.699,2.162,0.377c0.743-0.322,1.205-1.024,1.205-1.834  l0.003-20.504c0-1.652,1.343-2.997,2.995-2.999C30.66,17.002,32,18.347,32,20v18h2v-2h0.009c0-1.103,0.894-2,1.995-2  S38,34.897,38,36v2h2v-2h0.009c0-0.556,0.222-1.071,0.624-1.453c0.401-0.381,0.922-0.582,1.481-0.544  C43.155,34.057,44,35.029,44,36.17V38h2.003c0-0.555,0.222-1.07,0.624-1.452c0.401-0.381,0.922-0.58,1.483-0.545  C49.154,36.058,50,37.029,50,38.17V51.999z"/>
<linearGradient id="SVGID_3__48188" gradientUnits="userSpaceOnUse" x1="40.7444" y1="3.75" x2="40.7444" y2="60.005" spreadMethod="reflect">
	<stop offset="0" style="stop-color:#1A6DFF"/>
	<stop offset="1" style="stop-color:#C822FF"/>
</linearGradient>
<path style="fill:url(#SVGID_3__48188);" d="M38.476,23.384l1.575,1.232c1.939-2.481,2.965-5.461,2.965-8.616  c0-3.157-1.026-6.138-2.967-8.619l-1.575,1.232c1.663,2.126,2.542,4.68,2.542,7.387C41.016,18.705,40.137,21.259,38.476,23.384z"/>
<linearGradient id="SVGID_4__48188" gradientUnits="userSpaceOnUse" x1="17.2857" y1="3.75" x2="17.2857" y2="60.005" spreadMethod="reflect">
	<stop offset="0" style="stop-color:#1A6DFF"/>
	<stop offset="1" style="stop-color:#C822FF"/>
</linearGradient>
<path style="fill:url(#SVGID_4__48188);" d="M19.552,23.38c-1.66-2.125-2.537-4.677-2.537-7.38c0-2.706,0.878-5.259,2.54-7.384  l-1.575-1.232c-1.939,2.48-2.965,5.459-2.965,8.616c0,3.153,1.024,6.131,2.96,8.61L19.552,23.38z"/>
</svg>
