<?xml version="1.0" encoding="iso-8859-1"?>
<!-- Generator: Adobe Illustrator 20.1.0, SVG Export Plug-In . SVG Version: 6.00 Build 0)  -->
<svg xmlns="http://www.w3.org/2000/svg" xmlns:xlink="http://www.w3.org/1999/xlink" version="1.1" id="&#1057;&#1083;&#1086;&#1081;_1" x="0px" y="0px" viewBox="0 0 64 64" style="enable-background:new 0 0 64 64;" xml:space="preserve" width="64px" height="64px">
<linearGradient id="SVGID_1__43649" gradientUnits="userSpaceOnUse" x1="32" y1="9.5" x2="32" y2="28.8851" spreadMethod="reflect">
	<stop offset="0" style="stop-color:#6DC7FF"/>
	<stop offset="1" style="stop-color:#E6ABFF"/>
</linearGradient>
<path style="fill:url(#SVGID_1__43649);" d="M36,10h-8l-3,6v12.282c0,0.765,0.827,1.245,1.491,0.866L32,26l5.509,3.148  c0.665,0.38,1.491-0.1,1.491-0.866V16L36,10z"/>
<linearGradient id="SVGID_2__43649" gradientUnits="userSpaceOnUse" x1="32" y1="7.875" x2="32" y2="56.7449" spreadMethod="reflect">
	<stop offset="0" style="stop-color:#1A6DFF"/>
	<stop offset="1" style="stop-color:#C822FF"/>
</linearGradient>
<path style="fill:url(#SVGID_2__43649);" d="M56.762,15.209l-4.813-5.5C51,8.623,49.627,8,48.183,8H15.817C14.373,8,13,8.623,12.051,9.709  l-4.813,5.5C6.439,16.122,6,17.293,6,18.505v32.49C6,53.755,8.245,56,11.005,56h41.99C55.755,56,58,53.755,58,50.995v-32.49  C58,17.293,57.561,16.122,56.762,15.209z M50.443,11.025L54.796,16H39.694l-2.25-6h10.739C49.05,10,49.874,10.374,50.443,11.025z   M26,18h12l-0.006,10.273l-4.998-2.856c-0.613-0.352-1.376-0.352-1.989,0L26,28.27V18z M26.443,16l2.25-6h6.613l2.25,6H26.443z   M13.557,11.025C14.126,10.374,14.95,10,15.817,10h10.739l-2.25,6H9.204L13.557,11.025z M56,50.995C56,52.652,54.652,54,52.995,54  h-41.99C9.348,54,8,52.652,8,50.995v-32.49c0-0.17,0.017-0.339,0.046-0.505H24v10.27c0,0.723,0.373,1.371,0.998,1.733  c0.314,0.183,0.66,0.274,1.006,0.274c0.342,0,0.684-0.089,0.995-0.268l5.003-2.856l4.999,2.856c0.626,0.358,1.375,0.355,2.001-0.007  C39.627,29.641,40,28.992,40,28.27V18h15.954C55.983,18.166,56,18.334,56,18.505V50.995z"/>
<linearGradient id="SVGID_3__43649" gradientUnits="userSpaceOnUse" x1="32" y1="7.875" x2="32" y2="56.7449" spreadMethod="reflect">
	<stop offset="0" style="stop-color:#1A6DFF"/>
	<stop offset="1" style="stop-color:#C822FF"/>
</linearGradient>
<path style="fill:url(#SVGID_3__43649);" d="M37,34H27c-1.654,0-3,1.346-3,3s1.346,3,3,3h10c1.654,0,3-1.346,3-3S38.654,34,37,34z M37,38  H27c-0.552,0-1-0.448-1-1s0.448-1,1-1h10c0.552,0,1,0.448,1,1S37.552,38,37,38z"/>
<linearGradient id="SVGID_4__43649" gradientUnits="userSpaceOnUse" x1="50" y1="7.875" x2="50" y2="56.7449" spreadMethod="reflect">
	<stop offset="0" style="stop-color:#1A6DFF"/>
	<stop offset="1" style="stop-color:#C822FF"/>
</linearGradient>
<rect x="46" y="46" style="fill:url(#SVGID_4__43649);" width="8" height="2"/>
<linearGradient id="SVGID_5__43649" gradientUnits="userSpaceOnUse" x1="48" y1="7.875" x2="48" y2="56.7449" spreadMethod="reflect">
	<stop offset="0" style="stop-color:#1A6DFF"/>
	<stop offset="1" style="stop-color:#C822FF"/>
</linearGradient>
<rect x="42" y="50" style="fill:url(#SVGID_5__43649);" width="12" height="2"/>
<linearGradient id="SVGID_6__43649" gradientUnits="userSpaceOnUse" x1="11" y1="7.875" x2="11" y2="56.7449" spreadMethod="reflect">
	<stop offset="0" style="stop-color:#1A6DFF"/>
	<stop offset="1" style="stop-color:#C822FF"/>
</linearGradient>
<rect x="10" y="48" style="fill:url(#SVGID_6__43649);" width="2" height="4"/>
<linearGradient id="SVGID_7__43649" gradientUnits="userSpaceOnUse" x1="15" y1="7.875" x2="15" y2="56.7449" spreadMethod="reflect">
	<stop offset="0" style="stop-color:#1A6DFF"/>
	<stop offset="1" style="stop-color:#C822FF"/>
</linearGradient>
<rect x="14" y="48" style="fill:url(#SVGID_7__43649);" width="2" height="4"/>
<linearGradient id="SVGID_8__43649" gradientUnits="userSpaceOnUse" x1="19" y1="7.875" x2="19" y2="56.7449" spreadMethod="reflect">
	<stop offset="0" style="stop-color:#1A6DFF"/>
	<stop offset="1" style="stop-color:#C822FF"/>
</linearGradient>
<rect x="18" y="48" style="fill:url(#SVGID_8__43649);" width="2" height="4"/>
<linearGradient id="SVGID_9__43649" gradientUnits="userSpaceOnUse" x1="23" y1="7.875" x2="23" y2="56.7449" spreadMethod="reflect">
	<stop offset="0" style="stop-color:#1A6DFF"/>
	<stop offset="1" style="stop-color:#C822FF"/>
</linearGradient>
<rect x="22" y="48" style="fill:url(#SVGID_9__43649);" width="2" height="4"/>
<linearGradient id="SVGID_10__43649" gradientUnits="userSpaceOnUse" x1="15" y1="7.875" x2="15" y2="56.7449" spreadMethod="reflect">
	<stop offset="0" style="stop-color:#1A6DFF"/>
	<stop offset="1" style="stop-color:#C822FF"/>
</linearGradient>
<path style="fill:url(#SVGID_10__43649);" d="M18,20h-6c-1.103,0-2,0.897-2,2v6c0,1.103,0.897,2,2,2h6c1.103,0,2-0.897,2-2v-6  C20,20.897,19.103,20,18,20z M12,28v-6h6l0.002,6H12z"/>
<linearGradient id="SVGID_11__43649" gradientUnits="userSpaceOnUse" x1="32" y1="34.875" x2="32" y2="38.752" spreadMethod="reflect">
	<stop offset="0" style="stop-color:#6DC7FF"/>
	<stop offset="1" style="stop-color:#E6ABFF"/>
</linearGradient>
<path style="fill:url(#SVGID_11__43649);" d="M37,38H27c-0.552,0-1-0.448-1-1l0,0c0-0.552,0.448-1,1-1h10c0.552,0,1,0.448,1,1l0,0  C38,37.552,37.552,38,37,38z"/>
</svg>
