<?xml version="1.0" encoding="iso-8859-1"?>
<!-- Generator: Adobe Illustrator 20.1.0, SVG Export Plug-In . SVG Version: 6.00 Build 0)  -->
<svg xmlns="http://www.w3.org/2000/svg" xmlns:xlink="http://www.w3.org/1999/xlink" version="1.1" id="&#1057;&#1083;&#1086;&#1081;_1" x="0px" y="0px" viewBox="0 0 64 64" style="enable-background:new 0 0 64 64;" xml:space="preserve" width="64px" height="64px">
<linearGradient id="SVGID_1__44854" gradientUnits="userSpaceOnUse" x1="15" y1="5.5" x2="15" y2="16.3449" spreadMethod="reflect">
	<stop offset="0" style="stop-color:#6DC7FF"/>
	<stop offset="1" style="stop-color:#E6ABFF"/>
</linearGradient>
<path style="fill:url(#SVGID_1__44854);" d="M15.697,6.544l0.33,1.322c0.259,1.038,1.069,1.848,2.107,2.107l1.322,0.33  c0.725,0.181,0.725,1.212,0,1.393l-1.322,0.33c-1.038,0.259-1.848,1.069-2.107,2.107l-0.33,1.322c-0.181,0.725-1.212,0.725-1.393,0  l-0.33-1.322c-0.259-1.038-1.069-1.848-2.107-2.107l-1.322-0.33c-0.725-0.181-0.725-1.212,0-1.393l1.322-0.33  c1.038-0.259,1.848-1.069,2.107-2.107l0.33-1.322C14.485,5.819,15.515,5.819,15.697,6.544z"/>
<linearGradient id="SVGID_2__44854" gradientUnits="userSpaceOnUse" x1="50" y1="13" x2="50" y2="22.5015" spreadMethod="reflect">
	<stop offset="0" style="stop-color:#6DC7FF"/>
	<stop offset="1" style="stop-color:#E6ABFF"/>
</linearGradient>
<path style="fill:url(#SVGID_2__44854);" d="M53,17h-1c-0.552,0-1-0.448-1-1v-1c0-0.552-0.448-1-1-1l0,0c-0.552,0-1,0.448-1,1v1  c0,0.552-0.448,1-1,1h-1c-0.552,0-1,0.448-1,1v0c0,0.552,0.448,1,1,1h1c0.552,0,1,0.448,1,1v1c0,0.552,0.448,1,1,1l0,0  c0.552,0,1-0.448,1-1v-1c0-0.552,0.448-1,1-1h1c0.552,0,1-0.448,1-1v0C54,17.448,53.552,17,53,17z"/>
<linearGradient id="SVGID_3__44854" gradientUnits="userSpaceOnUse" x1="32" y1="8" x2="32" y2="60.0024" spreadMethod="reflect">
	<stop offset="0" style="stop-color:#1A6DFF"/>
	<stop offset="1" style="stop-color:#C822FF"/>
</linearGradient>
<path style="fill:url(#SVGID_3__44854);" d="M49.27,42.407l-9.098-6.998C39.438,34.845,39,33.955,39,33.029V20c1,0,2-0.897,2-2v-2  c0-1.103-0.897-2-2-2h-2v-2c0-1.103-0.897-2-2-2h-6c-1.103,0-2,0.897-2,2v2h-2c-1.103,0-2,0.897-2,2v2c0,1.103,1,2,2,2v13.029  c0,0.926-0.438,1.815-1.172,2.38l-9.098,6.998c-1.71,1.315-2.73,3.388-2.73,5.545V53c0,2.757,2.243,5,5,5h30c2.757,0,5-2.243,5-5  v-5.048C52,45.795,50.979,43.723,49.27,42.407z M29,12h6v2h-6V12z M25,16h14v2H25V16z M50,53c0,1.654-1.346,3-3,3H17  c-1.654,0-3-1.346-3-3v-5.048c0-1.54,0.729-3.021,1.949-3.959l9.098-6.998C26.27,36.055,27,34.572,27,33.029V20h10v2h-4v2h4v2h-2v2  h2v2h-4v2h4v1.029c0,1.543,0.73,3.025,1.953,3.966l9.098,6.998C49.271,44.932,50,46.412,50,47.952V53z"/>
<linearGradient id="SVGID_4__44854" gradientUnits="userSpaceOnUse" x1="23" y1="8" x2="23" y2="60.0024" spreadMethod="reflect">
	<stop offset="0" style="stop-color:#1A6DFF"/>
	<stop offset="1" style="stop-color:#C822FF"/>
</linearGradient>
<path style="fill:url(#SVGID_4__44854);" d="M23,47c-1.654,0-3,1.346-3,3s1.346,3,3,3s3-1.346,3-3S24.654,47,23,47z M23,51  c-0.552,0-1-0.448-1-1s0.448-1,1-1s1,0.448,1,1S23.552,51,23,51z"/>
<linearGradient id="SVGID_5__44854" gradientUnits="userSpaceOnUse" x1="38" y1="8" x2="38" y2="60.0024" spreadMethod="reflect">
	<stop offset="0" style="stop-color:#1A6DFF"/>
	<stop offset="1" style="stop-color:#C822FF"/>
</linearGradient>
<path style="fill:url(#SVGID_5__44854);" d="M38,42c-2.206,0-4,1.794-4,4s1.794,4,4,4s4-1.794,4-4S40.206,42,38,42z M38,48  c-1.103,0-2-0.897-2-2s0.897-2,2-2s2,0.897,2,2S39.103,48,38,48z"/>
</svg>
