<?xml version="1.0" encoding="iso-8859-1"?>
<!-- Generator: Adobe Illustrator 20.1.0, SVG Export Plug-In . SVG Version: 6.00 Build 0)  -->
<svg xmlns="http://www.w3.org/2000/svg" xmlns:xlink="http://www.w3.org/1999/xlink" version="1.1" id="&#1057;&#1083;&#1086;&#1081;_1" x="0px" y="0px" viewBox="0 0 64 64" style="enable-background:new 0 0 64 64;" xml:space="preserve" width="64px" height="64px">
<linearGradient id="SVGID_1__43659" gradientUnits="userSpaceOnUse" x1="19" y1="45.6667" x2="19" y2="54.4167" spreadMethod="reflect">
	<stop offset="0" style="stop-color:#6DC7FF"/>
	<stop offset="1" style="stop-color:#E6ABFF"/>
</linearGradient>
<path style="fill:url(#SVGID_1__43659);" d="M15,46v6c0,1.105,0.895,2,2,2h6L15,46z"/>
<linearGradient id="SVGID_2__43659" gradientUnits="userSpaceOnUse" x1="32" y1="5.5" x2="32" y2="58.4035" spreadMethod="reflect">
	<stop offset="0" style="stop-color:#1A6DFF"/>
	<stop offset="1" style="stop-color:#C822FF"/>
</linearGradient>
<rect x="28" y="18" style="fill:url(#SVGID_2__43659);" width="8" height="2"/>
<linearGradient id="SVGID_3__43659" gradientUnits="userSpaceOnUse" x1="32" y1="5.5" x2="32" y2="58.4035" spreadMethod="reflect">
	<stop offset="0" style="stop-color:#1A6DFF"/>
	<stop offset="1" style="stop-color:#C822FF"/>
</linearGradient>
<path style="fill:url(#SVGID_3__43659);" d="M49,18h-9v-3v-4c0-2.757-2.243-5-5-5h-6c-2.757,0-5,2.243-5,5v4v3h-9c-2.206,0-4,1.794-4,4v31  c0,2.757,2.243,5,5,5h32c2.757,0,5-2.243,5-5V22C53,19.794,51.206,18,49,18z M51,22c0,1.103-0.897,2-2,2h-9v-4h9  C50.103,20,51,20.897,51,22z M39,37c1.103,0,2,0.897,2,2s-0.897,2-2,2s-2-0.897-2-2S37.897,37,39,37z M29,8h6c1.654,0,3,1.346,3,3  v0.025C37.162,10.391,36.13,10,35,10h-6c-1.13,0-2.162,0.391-3,1.025V11C26,9.346,27.346,8,29,8z M25,37c1.103,0,2,0.897,2,2  s-0.897,2-2,2s-2-0.897-2-2S23.897,37,25,37z M15,20h9v4h-9c-1.103,0-2-0.897-2-2S13.897,20,15,20z M48,56H16c-1.654,0-3-1.346-3-3  V25.444C13.591,25.788,14.268,26,15,26h9v9.142c-1.72,0.447-3,1.999-3,3.858c0,2.206,1.794,4,4,4s4-1.794,4-4  c0-1.859-1.28-3.411-3-3.858V19v-4c0-1.654,1.346-3,3-3h6c1.654,0,3,1.346,3,3v4v16.142c-1.72,0.447-3,1.999-3,3.858  c0,2.206,1.794,4,4,4s4-1.794,4-4c0-1.859-1.28-3.411-3-3.858V26h9c0.732,0,1.409-0.212,2-0.556V44h-4v2h4v2h-6v2h6v2h-8v2h7.816  C50.402,55.162,49.302,56,48,56z"/>
<linearGradient id="SVGID_4__43659" gradientUnits="userSpaceOnUse" x1="32" y1="5.5" x2="32" y2="58.4035" spreadMethod="reflect">
	<stop offset="0" style="stop-color:#1A6DFF"/>
	<stop offset="1" style="stop-color:#C822FF"/>
</linearGradient>
<rect x="28" y="24" style="fill:url(#SVGID_4__43659);" width="8" height="2"/>
</svg>
