<?xml version="1.0" encoding="iso-8859-1"?>
<!-- Generator: Adobe Illustrator 20.1.0, SVG Export Plug-In . SVG Version: 6.00 Build 0)  -->
<svg xmlns="http://www.w3.org/2000/svg" xmlns:xlink="http://www.w3.org/1999/xlink" version="1.1" id="&#1057;&#1083;&#1086;&#1081;_1" x="0px" y="0px" viewBox="0 0 64 64" style="enable-background:new 0 0 64 64;" xml:space="preserve" width="64px" height="64px">
<linearGradient id="SVGID_1__49484" gradientUnits="userSpaceOnUse" x1="23" y1="26.8275" x2="23" y2="33.2937" spreadMethod="reflect">
	<stop offset="0" style="stop-color:#6DC7FF"/>
	<stop offset="1" style="stop-color:#E6ABFF"/>
</linearGradient>
<circle style="fill:url(#SVGID_1__49484);" cx="23" cy="30" r="2.5"/>
<linearGradient id="SVGID_2__49484" gradientUnits="userSpaceOnUse" x1="29" y1="33.5833" x2="29" y2="38.9225" spreadMethod="reflect">
	<stop offset="0" style="stop-color:#6DC7FF"/>
	<stop offset="1" style="stop-color:#E6ABFF"/>
</linearGradient>
<path style="fill:url(#SVGID_2__49484);" d="M31,34h-4c-0.552,0-1,0.448-1,1c0,1.657,1.343,3,3,3s3-1.343,3-3C32,34.448,31.552,34,31,34z"/>
<linearGradient id="SVGID_3__49484" gradientUnits="userSpaceOnUse" x1="44" y1="5.3333" x2="44" y2="58.3847" spreadMethod="reflect">
	<stop offset="0" style="stop-color:#1A6DFF"/>
	<stop offset="1" style="stop-color:#C822FF"/>
</linearGradient>
<path style="fill:url(#SVGID_3__49484);" d="M52,6H36c-2.757,0-5,2.243-5,5v10c0,2.757,2.243,5,5,5h4.83c1.141,0,2.112,0.848,2.167,1.891  c0.029,0.557-0.165,1.084-0.547,1.486C42.069,29.779,41.554,30,41,30v2h2c3.521,0,6.442-2.612,6.929-6H52c2.757,0,5-2.243,5-5V11  C57,8.243,54.757,6,52,6z M55,21c0,1.654-1.346,3-3,3h-4v1c0,2.195-1.422,4.064-3.394,4.735c0.289-0.598,0.424-1.263,0.389-1.949  C44.884,25.663,43.054,24,40.83,24H36c-1.654,0-3-1.346-3-3V11c0-1.654,1.346-3,3-3h16c1.654,0,3,1.346,3,3V21z"/>
<linearGradient id="SVGID_4__49484" gradientUnits="userSpaceOnUse" x1="24.0498" y1="5.3333" x2="24.0498" y2="58.3847" spreadMethod="reflect">
	<stop offset="0" style="stop-color:#1A6DFF"/>
	<stop offset="1" style="stop-color:#C822FF"/>
</linearGradient>
<path style="fill:url(#SVGID_4__49484);" d="M19.1,18.202l1.801,0.869c0.094-0.194,0.195-0.384,0.303-0.57C22.81,15.725,25.797,14,29,14  v-2c-3.914,0-7.565,2.107-9.527,5.499C19.34,17.729,19.215,17.963,19.1,18.202z"/>
<linearGradient id="SVGID_5__49484" gradientUnits="userSpaceOnUse" x1="29" y1="5.3333" x2="29" y2="58.3847" spreadMethod="reflect">
	<stop offset="0" style="stop-color:#1A6DFF"/>
	<stop offset="1" style="stop-color:#C822FF"/>
</linearGradient>
<path style="fill:url(#SVGID_5__49484);" d="M42.074,38.317c0.713-1.264,1.26-2.637,1.58-4.104l-1.953-0.427  C40.409,39.705,35.067,44,29,44c-7.168,0-13-5.832-13-13v-8c0-7.168,5.832-13,13-13V8c-8.271,0-15,6.729-15,15v1  c-3.309,0-6,2.691-6,6s2.691,6,6,6h0.875c0.287,0.807,0.632,1.584,1.046,2.321C10.327,42.466,7,49.023,7,56v2h44v-2  C51,49.021,47.671,42.462,42.074,38.317z M14,34c-2.206,0-4-1.794-4-4s1.794-4,4-4v5c0,1.027,0.105,2.03,0.302,3H14z M29,46  c4.802,0,9.208-2.333,11.985-6.002c0.541,0.406,1.059,0.834,1.551,1.288C39.325,45.508,34.34,48,29,48  c-5.339,0-10.326-2.492-13.536-6.714c0.494-0.456,1.015-0.885,1.559-1.293C19.762,43.632,24.104,46,29,46z M27.278,56  c0.347-0.595,0.985-1,1.722-1s1.375,0.405,1.722,1H27.278z M45,56v-2h-2v2H32.858c-0.447-1.72-1.999-3-3.858-3s-3.411,1.28-3.858,3  H15v-2h-2v2H9c0-4.943,1.835-9.656,5.052-13.28C17.645,47.301,23.129,50,29,50s11.357-2.699,14.948-7.28  C47.164,46.344,49,51.057,49,56H45z"/>
<linearGradient id="SVGID_6__49484" gradientUnits="userSpaceOnUse" x1="44" y1="5.3333" x2="44" y2="58.3847" spreadMethod="reflect">
	<stop offset="0" style="stop-color:#1A6DFF"/>
	<stop offset="1" style="stop-color:#C822FF"/>
</linearGradient>
<rect x="37" y="11" style="fill:url(#SVGID_6__49484);" width="14" height="2"/>
<linearGradient id="SVGID_7__49484" gradientUnits="userSpaceOnUse" x1="42" y1="5.3333" x2="42" y2="58.3847" spreadMethod="reflect">
	<stop offset="0" style="stop-color:#1A6DFF"/>
	<stop offset="1" style="stop-color:#C822FF"/>
</linearGradient>
<rect x="37" y="15" style="fill:url(#SVGID_7__49484);" width="10" height="2"/>
<linearGradient id="SVGID_8__49484" gradientUnits="userSpaceOnUse" x1="40" y1="5.3333" x2="40" y2="58.3847" spreadMethod="reflect">
	<stop offset="0" style="stop-color:#1A6DFF"/>
	<stop offset="1" style="stop-color:#C822FF"/>
</linearGradient>
<rect x="37" y="19" style="fill:url(#SVGID_8__49484);" width="6" height="2"/>
<linearGradient id="SVGID_9__49484" gradientUnits="userSpaceOnUse" x1="35" y1="26.8275" x2="35" y2="33.2937" spreadMethod="reflect">
	<stop offset="0" style="stop-color:#6DC7FF"/>
	<stop offset="1" style="stop-color:#E6ABFF"/>
</linearGradient>
<circle style="fill:url(#SVGID_9__49484);" cx="35" cy="30" r="2.5"/>
</svg>
