<?xml version="1.0" encoding="iso-8859-1"?>
<!-- Generator: Adobe Illustrator 20.1.0, SVG Export Plug-In . SVG Version: 6.00 Build 0)  -->
<svg xmlns="http://www.w3.org/2000/svg" xmlns:xlink="http://www.w3.org/1999/xlink" version="1.1" id="&#1057;&#1083;&#1086;&#1081;_1" x="0px" y="0px" viewBox="0 0 64 64" style="enable-background:new 0 0 64 64;" xml:space="preserve" width="64px" height="64px">
<linearGradient id="SVGID_1__49438" gradientUnits="userSpaceOnUse" x1="25" y1="6.0833" x2="25" y2="17.931" spreadMethod="reflect">
	<stop offset="0" style="stop-color:#6DC7FF"/>
	<stop offset="1" style="stop-color:#E6ABFF"/>
</linearGradient>
<path style="fill:url(#SVGID_1__49438);" d="M20,10v7c0,0.552,0.453,1,1.006,1h2C23.558,18,24,17.552,24,17v-1c0-0.552,0.453-1,1.006-1h4  C29.558,15,30,14.552,30,14V7"/>
<linearGradient id="SVGID_2__49438" gradientUnits="userSpaceOnUse" x1="22" y1="19.5833" x2="22" y2="24.4174" spreadMethod="reflect">
	<stop offset="0" style="stop-color:#6DC7FF"/>
	<stop offset="1" style="stop-color:#E6ABFF"/>
</linearGradient>
<path style="fill:url(#SVGID_2__49438);" d="M24,23c0,0.552-0.448,1-1,1h-2c-0.552,0-1-0.448-1-1v-2c0-0.552,0.448-1,1-1h2  c0.552,0,1,0.448,1,1V23z"/>
<linearGradient id="SVGID_3__49438" gradientUnits="userSpaceOnUse" x1="30" y1="19.75" x2="30" y2="25.084" spreadMethod="reflect">
	<stop offset="0" style="stop-color:#6DC7FF"/>
	<stop offset="1" style="stop-color:#E6ABFF"/>
</linearGradient>
<path style="fill:url(#SVGID_3__49438);" d="M34,23c0,0.552-0.448,1-1,1h-6c-0.552,0-1-0.448-1-1v-2c0-0.552,0.448-1,1-1h6  c0.552,0,1,0.448,1,1V23z"/>
<linearGradient id="SVGID_4__49438" gradientUnits="userSpaceOnUse" x1="35" y1="25.5833" x2="35" y2="36.6667" spreadMethod="reflect">
	<stop offset="0" style="stop-color:#6DC7FF"/>
	<stop offset="1" style="stop-color:#E6ABFF"/>
</linearGradient>
<path style="fill:url(#SVGID_4__49438);" d="M30,32.771V27c0-0.552,0.453-1,1.006-1h8C39.558,26,40,26.448,40,27v5.331  c0,0.28-0.115,0.548-0.321,0.737l-4.001,3.667C35.036,37.323,34,36.868,34,35.998v-1.227C34,34.219,33.558,34,33.006,34h-2  C30.453,34,30,33.324,30,32.771z"/>
<linearGradient id="SVGID_5__49438" gradientUnits="userSpaceOnUse" x1="24" y1="25.4167" x2="24" y2="30.586" spreadMethod="reflect">
	<stop offset="0" style="stop-color:#6DC7FF"/>
	<stop offset="1" style="stop-color:#E6ABFF"/>
</linearGradient>
<path style="fill:url(#SVGID_5__49438);" d="M28,29c0,0.552-0.448,1-1,1h-6c-0.552,0-1-0.448-1-1v-2c0-0.552,0.448-1,1-1h6  c0.552,0,1,0.448,1,1V29z"/>
<linearGradient id="SVGID_6__49438" gradientUnits="userSpaceOnUse" x1="33.3676" y1="4.5" x2="33.3676" y2="58.3344" spreadMethod="reflect">
	<stop offset="0" style="stop-color:#1A6DFF"/>
	<stop offset="1" style="stop-color:#C822FF"/>
</linearGradient>
<path style="fill:url(#SVGID_6__49438);" d="M32.885,47.787c4.895-0.614,9.633-2.773,13.383-6.523c8.967-8.968,8.967-23.56,0.001-32.527  l-1.414,1.414c8.188,8.188,8.188,21.511,0,29.699c-8.188,8.188-21.512,8.188-29.699,0l-1.414,1.414  c3.75,3.75,8.484,5.909,13.379,6.523C27.38,48.733,28,49.489,29,49.816V53h-1.979c-1.658,0-3.005,1.344-3.014,3H19v2h22v-2h-4.996  c-0.009-1.656-1.356-3-3.014-3H31v-3.184C32,49.489,32.626,48.733,32.885,47.787z M34.002,56h-7.994c0.009-0.552,0.458-1,1.012-1  h5.969C33.544,55,33.993,55.448,34.002,56z"/>
<linearGradient id="SVGID_7__49438" gradientUnits="userSpaceOnUse" x1="30.0056" y1="4.5" x2="30.0056" y2="58.3344" spreadMethod="reflect">
	<stop offset="0" style="stop-color:#1A6DFF"/>
	<stop offset="1" style="stop-color:#C822FF"/>
</linearGradient>
<path style="fill:url(#SVGID_7__49438);" d="M30.006,44c5.075,0,9.846-1.977,13.435-5.565S49.006,30.075,49.006,25  s-1.977-9.846-5.565-13.435S35.081,6,30.006,6s-9.846,1.977-13.435,5.565S11.006,19.925,11.006,25s1.977,9.846,5.565,13.435  S24.93,44,30.006,44z M17.985,12.979C21.196,9.769,25.465,8,30.006,8s8.81,1.769,12.021,4.979S47.006,20.459,47.006,25  s-1.769,8.81-4.979,12.021S34.547,42,30.006,42s-8.81-1.769-12.021-4.979S13.006,29.541,13.006,25S14.774,16.19,17.985,12.979z"/>
</svg>
