<?xml version="1.0" encoding="iso-8859-1"?>
<!-- Generator: Adobe Illustrator 21.1.0, SVG Export Plug-In . SVG Version: 6.00 Build 0)  -->
<svg xmlns="http://www.w3.org/2000/svg" xmlns:xlink="http://www.w3.org/1999/xlink" version="1.1" id="Layer_1" x="0px" y="0px" viewBox="0 0 64 64" style="enable-background:new 0 0 64 64;" xml:space="preserve" width="64px" height="64px">
<linearGradient id="SVGID_1__56040" gradientUnits="userSpaceOnUse" x1="35" y1="49" x2="35" y2="53" spreadMethod="reflect">
	<stop offset="0" style="stop-color:#6DC7FF"/>
	<stop offset="1" style="stop-color:#E6ABFF"/>
</linearGradient>
<polygon style="fill:url(#SVGID_1__56040);" points="35,49 34,51 34,53 36,53 36,51 "/>
<linearGradient id="SVGID_2__56040" gradientUnits="userSpaceOnUse" x1="39" y1="49" x2="39" y2="53" spreadMethod="reflect">
	<stop offset="0" style="stop-color:#6DC7FF"/>
	<stop offset="1" style="stop-color:#E6ABFF"/>
</linearGradient>
<polygon style="fill:url(#SVGID_2__56040);" points="39,49 38,51 38,53 40,53 40,51 "/>
<linearGradient id="SVGID_3__56040" gradientUnits="userSpaceOnUse" x1="37" y1="55" x2="37" y2="57" spreadMethod="reflect">
	<stop offset="0" style="stop-color:#6DC7FF"/>
	<stop offset="1" style="stop-color:#E6ABFF"/>
</linearGradient>
<rect x="34" y="55" style="fill:url(#SVGID_3__56040);" width="6" height="2"/>
<linearGradient id="SVGID_4__56040" gradientUnits="userSpaceOnUse" x1="31.9984" y1="7.4998" x2="31.9984" y2="18.6203" spreadMethod="reflect">
	<stop offset="0" style="stop-color:#6DC7FF"/>
	<stop offset="1" style="stop-color:#E6ABFF"/>
</linearGradient>
<path style="fill:url(#SVGID_4__56040);" d="M36.609,18.614c0.132,0.033,0.255-0.069,0.241-0.204c-0.37-3.502-1.477-8.463-4.724-10.872  c-0.069-0.051-0.163-0.049-0.236-0.006c-3.262,2.405-4.375,7.368-4.744,10.873c-0.015,0.138,0.111,0.242,0.246,0.208  C28.804,18.258,30.386,18,32,18C33.614,18,35.197,18.259,36.609,18.614z"/>
<linearGradient id="SVGID_5__56040" gradientUnits="userSpaceOnUse" x1="45.3704" y1="8.8898" x2="45.3704" y2="18.4918" spreadMethod="reflect">
	<stop offset="0" style="stop-color:#6DC7FF"/>
	<stop offset="1" style="stop-color:#E6ABFF"/>
</linearGradient>
<path style="fill:url(#SVGID_5__56040);" d="M50.042,17.989c-1.534-3.894-4.809-7.15-9.077-9.081c-0.168-0.076-0.338,0.099-0.263,0.267  c0.02,0.044,0.031,0.094,0.05,0.14c1.324,3.029,1.913,6.289,2.146,9.001c0.01,0.121,0.12,0.199,0.239,0.17  C44.28,18.2,45.586,18,47,18c0.539,0,1.059,0.033,1.564,0.085c0.172,0.018,0.332,0.047,0.5,0.07  c0.253,0.034,0.513,0.061,0.754,0.105C49.973,18.288,50.1,18.135,50.042,17.989z"/>
<linearGradient id="SVGID_6__56040" gradientUnits="userSpaceOnUse" x1="18.63" y1="8.8898" x2="18.63" y2="18.4871" spreadMethod="reflect">
	<stop offset="0" style="stop-color:#6DC7FF"/>
	<stop offset="1" style="stop-color:#E6ABFF"/>
</linearGradient>
<path style="fill:url(#SVGID_6__56040);" d="M17,18c1.42,0,2.724,0.198,3.864,0.481c0.118,0.029,0.228-0.049,0.238-0.17  c0.236-2.752,0.829-6.07,2.196-9.136c0.075-0.168-0.095-0.343-0.263-0.267c-4.267,1.93-7.541,5.185-9.076,9.078  c-0.058,0.146,0.069,0.299,0.223,0.271C15.052,18.099,15.997,18,17,18z"/>
<linearGradient id="SVGID_7__56040" gradientUnits="userSpaceOnUse" x1="32" y1="3" x2="32" y2="61.1413" spreadMethod="reflect">
	<stop offset="0" style="stop-color:#1A6DFF"/>
	<stop offset="1" style="stop-color:#C822FF"/>
</linearGradient>
<path style="fill:url(#SVGID_7__56040);" d="M34,47h-4c-1.103,0-2-0.897-2-2v-4h8v4C36,46.103,35.103,47,34,47z M30,43v2h4v-2H30z"/>
<linearGradient id="SVGID_8__56040" gradientUnits="userSpaceOnUse" x1="27.6841" y1="3" x2="27.6841" y2="61.1413" spreadMethod="reflect">
	<stop offset="0" style="stop-color:#1A6DFF"/>
	<stop offset="1" style="stop-color:#C822FF"/>
</linearGradient>
<path style="fill:url(#SVGID_8__56040);" d="M23.002,23.066c-0.042-0.641-0.937-15.745,8.592-19.98l0.813,1.827  c-8.267,3.674-7.418,17.877-7.408,18.02L23.002,23.066z"/>
<linearGradient id="SVGID_9__56040" gradientUnits="userSpaceOnUse" x1="36.3159" y1="3" x2="36.3159" y2="61.1413" spreadMethod="reflect">
	<stop offset="0" style="stop-color:#1A6DFF"/>
	<stop offset="1" style="stop-color:#C822FF"/>
</linearGradient>
<path style="fill:url(#SVGID_9__56040);" d="M40.998,23.066l-1.996-0.132c0.01-0.143,0.844-14.353-7.408-18.021l0.813-1.827  C41.935,7.321,41.04,22.426,40.998,23.066z"/>
<linearGradient id="SVGID_10__56040" gradientUnits="userSpaceOnUse" x1="32" y1="3" x2="32" y2="61.1413" spreadMethod="reflect">
	<stop offset="0" style="stop-color:#1A6DFF"/>
	<stop offset="1" style="stop-color:#C822FF"/>
</linearGradient>
<path style="fill:url(#SVGID_10__56040);" d="M24,24c-0.196,0-0.392-0.058-0.561-0.172C23.414,23.812,20.666,22,17,22  c-3.668,0-6.414,1.811-6.441,1.83c-0.307,0.205-0.702,0.226-1.028,0.052S9,23.369,9,23C9,11.972,19.317,3,32,3s23,8.972,23,20  c0,0.369-0.203,0.708-0.528,0.882c-0.323,0.173-0.718,0.155-1.024-0.048l0,0C53.419,23.815,50.628,22,47,22  c-3.655,0-6.418,1.814-6.445,1.832c-0.298,0.199-0.682,0.222-1.001,0.063C39.516,23.876,35.707,22,32,22  c-3.721,0-7.515,1.875-7.553,1.895C24.306,23.965,24.152,24,24,24z M32,20c3.384,0,6.701,1.318,7.941,1.87  C41.006,21.274,43.671,20,47,20c2.456,0,4.55,0.693,5.906,1.296C51.901,12.167,42.909,5,32,5c-10.906,0-19.897,7.163-20.906,16.289  C12.444,20.688,14.528,20,17,20c3.358,0,6.001,1.27,7.062,1.869C25.304,21.316,28.619,20,32,20z"/>
<linearGradient id="SVGID_11__56040" gradientUnits="userSpaceOnUse" x1="37" y1="3" x2="37" y2="61.1413" spreadMethod="reflect">
	<stop offset="0" style="stop-color:#1A6DFF"/>
	<stop offset="1" style="stop-color:#C822FF"/>
</linearGradient>
<path style="fill:url(#SVGID_11__56040);" d="M34,43c-0.1,0-0.201-0.015-0.301-0.047c-0.527-0.167-0.819-0.728-0.652-1.255l6-19  c0.165-0.526,0.73-0.82,1.254-0.652c0.527,0.167,0.819,0.728,0.652,1.255l-6,19C34.819,42.728,34.425,43,34,43z"/>
<linearGradient id="SVGID_12__56040" gradientUnits="userSpaceOnUse" x1="46.5" y1="3" x2="46.5" y2="61.1413" spreadMethod="reflect">
	<stop offset="0" style="stop-color:#1A6DFF"/>
	<stop offset="1" style="stop-color:#C822FF"/>
</linearGradient>
<path style="fill:url(#SVGID_12__56040);" d="M38.999,43c-0.217,0-0.436-0.07-0.619-0.215c-0.433-0.342-0.507-0.971-0.165-1.404l15-19  c0.343-0.433,0.972-0.507,1.405-0.165c0.433,0.342,0.507,0.971,0.165,1.404l-15,19C39.588,42.87,39.295,43,38.999,43z"/>
<linearGradient id="SVGID_13__56040" gradientUnits="userSpaceOnUse" x1="27" y1="3" x2="27" y2="61.1413" spreadMethod="reflect">
	<stop offset="0" style="stop-color:#1A6DFF"/>
	<stop offset="1" style="stop-color:#C822FF"/>
</linearGradient>
<path style="fill:url(#SVGID_13__56040);" d="M30,43c-0.425,0-0.819-0.273-0.953-0.699l-6-19c-0.167-0.527,0.125-1.088,0.652-1.255  c0.526-0.167,1.089,0.126,1.254,0.652l6,19c0.167,0.527-0.125,1.088-0.652,1.255C30.201,42.985,30.1,43,30,43z"/>
<linearGradient id="SVGID_14__56040" gradientUnits="userSpaceOnUse" x1="17.5" y1="3" x2="17.5" y2="61.1413" spreadMethod="reflect">
	<stop offset="0" style="stop-color:#1A6DFF"/>
	<stop offset="1" style="stop-color:#C822FF"/>
</linearGradient>
<path style="fill:url(#SVGID_14__56040);" d="M25.001,43c-0.296,0-0.589-0.13-0.786-0.38l-15-19c-0.342-0.434-0.268-1.063,0.165-1.404  c0.435-0.342,1.064-0.268,1.405,0.165l15,19c0.342,0.434,0.268,1.063-0.165,1.404C25.437,42.93,25.218,43,25.001,43z"/>
<linearGradient id="SVGID_15__56040" gradientUnits="userSpaceOnUse" x1="32" y1="3" x2="32" y2="61.1413" spreadMethod="reflect">
	<stop offset="0" style="stop-color:#1A6DFF"/>
	<stop offset="1" style="stop-color:#C822FF"/>
</linearGradient>
<path style="fill:url(#SVGID_15__56040);" d="M41,61H23c-1.654,0-3-1.346-3-3V44c0-1.654,1.346-3,3-3h18c1.166,0,2.179,0.669,2.675,1.643  C43.883,43.051,44,43.512,44,44v14C44,59.654,42.654,61,41,61z M23,43c-0.552,0-1,0.449-1,1v14c0,0.551,0.448,1,1,1h18  c0.552,0,1-0.449,1-1V44c0-0.551-0.448-1-1-1H23z"/>
</svg>
